# xmcd
#
# Track frame offsets:
#	150
#	14550
#	28575
#	43200
#	59550
#	72600
#	90525
#	107250
#	128175
#	144450
#	160650
#	175800
#	189075
#	204825
#	221250
#	235725
#
# Disc length: 3301 seconds
#
# Revision: 2
# Processed by: cddbd v1.5.2PL0 Copyright (c) Steve Scherf et al.
# Submitted via: EasyCDDAExtractor 15.2.5.1
#
DISCID=d60ce310
DTITLE=陳思安 (6) - 餐廳小唱(台灣版)
DYEAR=1980
DGENRE=Alternative
TTITLE0=夕陽伴我歸
TTITLE1=我在你左右
TTITLE2=伊人何處
TTITLE3=有真情有活力
TTITLE4=我的一顆心
TTITLE5=情人的黄襯衫
TTITLE6=只要你記得
TTITLE7=情人的眼淚
TTITLE8=懷念
TTITLE9=夢難留
TTITLE10=煙水寒
TTITLE11=小丑
TTITLE12=千言萬語
TTITLE13=你最無情
TTITLE14=愛的禮物
TTITLE15=我的心裡沒有他
EXTD=
EXTT0=
EXTT1=
EXTT2=
EXTT3=
EXTT4=
EXTT5=
EXTT6=
EXTT7=
EXTT8=
EXTT9=
EXTT10=
EXTT11=
EXTT12=
EXTT13=
EXTT14=
EXTT15=
PLAYORDER=
